<?xml version="1.0" standalone="no"?><!DOCTYPE svg PUBLIC "-//W3C//DTD SVG 1.1//EN" "http://www.w3.org/Graphics/SVG/1.1/DTD/svg11.dtd"><svg t="1627891398373" class="icon" viewBox="0 0 1024 1024" version="1.1" xmlns="http://www.w3.org/2000/svg" p-id="1870" width="48" height="48" xmlns:xlink="http://www.w3.org/1999/xlink"><defs><style type="text/css"></style></defs><path d="M10.809 509.724a501.191 501.191 0 1 0 1002.382 0 501.191 501.191 0 1 0-1002.382 0z" fill="#00BC0D" p-id="1871"></path><path d="M807.822 574.578a165.547 165.547 0 0 0-174.08-148.48 162.133 162.133 0 0 0-174.649 148.48 162.133 162.133 0 0 0 174.08 148.48 264.533 264.533 0 0 0 61.44-10.24l56.89 30.72-15.36-51.2a155.876 155.876 0 0 0 71.68-117.76z m-230.4-25.6a20.48 20.48 0 0 1 0-40.96 23.324 23.324 0 0 1 25.6 20.48 23.324 23.324 0 0 1-26.169 20.48z m113.778 0a20.48 20.48 0 0 1 0-40.96 23.324 23.324 0 0 1 25.6 20.48 23.324 23.324 0 0 1-26.738 20.48z" fill="#FFFFFF" p-id="1872"></path><path d="M616.676 407.893h19.91A208.782 208.782 0 0 0 425.53 262.258 195.129 195.129 0 0 0 216.178 440.32a170.667 170.667 0 0 0 83.626 141.084l-21.048 63.147 73.386-36.978a365.227 365.227 0 0 0 73.387 10.24h19.342a153.031 153.031 0 0 1-6.258-43.804 170.667 170.667 0 0 1 178.063-166.116z m-113.778-56.889a26.169 26.169 0 0 1 0 52.338 29.582 29.582 0 0 1-31.29-26.169 29.582 29.582 0 0 1 32.428-26.169z m-146.205 52.338a29.582 29.582 0 0 1-31.289-26.169 29.582 29.582 0 0 1 31.29-26.169 26.169 26.169 0 1 1 0 52.338z" fill="#FFFFFF" p-id="1873"></path></svg>